# xmcd
#
# Track frame offsets:
#	180
#	13116
#	30050
#	42034
#	54441
#	69567
#	80536
#	97055
#	109767
#	124013
#	138267
#	151836
#	164729
#	178033
#	191433
#	204469
#	217705
#	230002
#	243996
#	256483
#	270359
#	283154
#	297383
#	310350
#
# Disc length: 4302 seconds
#
# Revision: 1
# Processed by: cddbd v1.5.2PL0 Copyright (c) Steve Scherf et al.
# Submitted via: audiograbber 1.83.01
#
DISCID=5210cc18
DTITLE=Various Artist - Blues goes on CD  2 
DYEAR=1900
DGENRE=Blues
TTITLE0=Arthur Big Boy Crudup - Give Me A 32 - 20
TTITLE1=John Lee Hooker - Don´t Trust Nobody
TTITLE2=Brownie Mc Ghee - Deep Sea River
TTITLE3=Big Joe Turner - Hollywood Bed (Cherry Red Blues)
TTITLE4=Muddy Waters - Standing Around Crying
TTITLE5=K.C. Douglas - Mercury Boogie
TTITLE6=Muddy Waters - You´re Gonna Miss Me When I´m Gone
TTITLE7=Big Boy Crudup - I Don´t Know It
TTITLE8=Lightnin' Hopkins - Blues (That Mean Old Twister)
TTITLE9=John Lee Hooker - Catfish
TTITLE10=B.B.King - Three O´clock Blues
TTITLE11=Big Joe Williams - Crawling King Snake
TTITLE12=Lonnie Johnson - Keep What You Got
TTITLE13=Big Bill Broonzy - Big Billy Blues
TTITLE14=Kokomo Arnold - Fool Man Blues
TTITLE15=Muddy Waters - Burr Clover Farm Blues
TTITLE16=Brownie Mc Ghee - Back Door Stranger
TTITLE17=Bessie Smith - Gulf Coast Blues
TTITLE18=Big Bill Broonzy - Good Liquor Gonna Carry Me Down
TTITLE19=John Lee Hooker - Apologize
TTITLE20=Skip James - 22 - 20 Blues
TTITLE21=Bessie Smith - Easy Come, Easy Go Blues
TTITLE22=Brownie Mc Ghee - Born For But Luck 
TTITLE23=Brothor George and His Sanctitied Singers - Precious Lord
EXTD=
EXTT0=
EXTT1=
EXTT2=
EXTT3=
EXTT4=
EXTT5=
EXTT6=
EXTT7=
EXTT8=
EXTT9=
EXTT10=
EXTT11=
EXTT12=
EXTT13=
EXTT14=
EXTT15=
EXTT16=
EXTT17=
EXTT18=
EXTT19=
EXTT20=
EXTT21=
EXTT22=
EXTT23=
PLAYORDER=
